# xmcd
#
# Track frame offsets:
#	150
#	15100
#	34650
#	51587
#	66250
#	85412
#	105175
#	117037
#	130225
#	148547
#	163275
#	176512
#
# Disc length: 2440 seconds
#
# Revision: 1
# Processed by: cddbd v1.4PL0 Copyright (c) Steve Scherf et al.
# Submitted via: CDmax 1.9
#
DISCID=9a09860c
DTITLE=Witches Brew - Musical Graffiti
DYEAR=1900
DGENRE=Rap
TTITLE0=Goin Crazy
TTITLE1=Breakin Me Down
TTITLE2=Floored!!
TTITLE3=Back Down That Road
TTITLE4=I Won't Share You
TTITLE5=Come With Me
TTITLE6=Where Do You Go??
TTITLE7=Buggin Out!!
TTITLE8=I Should've Quit Ya
TTITLE9=Pushin Up Daisies
TTITLE10=Jungle Music From The WB
TTITLE11=Outro
EXTD=
EXTT0=
EXTT1=
EXTT2=
EXTT3=
EXTT4=
EXTT5=
EXTT6=
EXTT7=
EXTT8=
EXTT9=
EXTT10=
EXTT11=
PLAYORDER=
